<svg width="12" height="12" viewBox="0 0 12 12" fill="none" xmlns="http://www.w3.org/2000/svg">
<path d="M5.125 6H6V8.33333H7.16667M6.00001 3.66667H6.00584M6.91165 11.1702C7.59062 11.0505 8.23936 10.7982 8.82082 10.4278C9.40229 10.0574 9.9051 9.57603 10.3005 9.01128C10.696 8.44652 10.9763 7.8094 11.1256 7.13631C11.2748 6.46321 11.29 5.76731 11.1702 5.08835C11.0505 4.40938 10.7982 3.76064 10.4278 3.17918C10.0574 2.59771 9.57603 2.0949 9.01128 1.69945C8.44652 1.30401 7.8094 1.02367 7.13631 0.874446C6.46321 0.725224 5.76731 0.710039 5.08835 0.829759C4.40938 0.94948 3.76064 1.20176 3.17918 1.5722C2.59771 1.94263 2.0949 2.42397 1.69945 2.98872C1.304 3.55348 1.02367 4.1906 0.874446 4.86369C0.725224 5.53679 0.710039 6.23269 0.82976 6.91165C0.94948 7.59062 1.20176 8.23936 1.5722 8.82082C1.94263 9.40229 2.42397 9.9051 2.98872 10.3005C3.55348 10.696 4.1906 10.9763 4.86369 11.1256C5.53679 11.2748 6.23269 11.29 6.91165 11.1702Z" stroke="#223F80" stroke-linecap="round" stroke-linejoin="round"/>
</svg>
