<svg width="14" height="14" viewBox="0 0 14 14" fill="none" xmlns="http://www.w3.org/2000/svg">
<path d="M11.5492 8.60184L13.3637 10.4163C13.7151 10.7678 13.7151 11.3375 13.3637 11.6889C11.4638 13.5888 8.45604 13.8026 6.30656 12.1905L6.18126 12.0965C4.55988 10.8804 3.11956 9.44012 1.90353 7.81874L1.80955 7.69343C0.197442 5.54396 0.411197 2.53617 2.31108 0.636285C2.66249 0.284875 3.23224 0.284874 3.58365 0.636285L5.39816 2.45079C5.78868 2.84131 5.78868 3.47448 5.39816 3.865L4.13196 5.1312C3.896 5.36716 3.8375 5.72764 3.98674 6.0261C4.84944 7.75151 6.24849 9.15056 7.9739 10.0133C8.27236 10.1625 8.63284 10.104 8.8688 9.86804L10.135 8.60184C10.5255 8.21132 11.1587 8.21132 11.5492 8.60184Z" fill="white"/>
</svg>
