<svg width="29" height="29" viewBox="0 0 29 29" fill="none" xmlns="http://www.w3.org/2000/svg">
<path d="M2.4165 10.0417C2.4165 8.15604 2.4165 7.21323 3.00229 6.62744C3.58808 6.04166 4.53089 6.04166 6.4165 6.04166H22.5832C24.4688 6.04166 25.4116 6.04166 25.9974 6.62744C26.5832 7.21323 26.5832 8.15604 26.5832 10.0417V11.0833C26.5832 11.5547 26.5832 11.7904 26.4367 11.9369C26.2903 12.0833 26.0546 12.0833 25.5832 12.0833H3.4165C2.9451 12.0833 2.7094 12.0833 2.56295 11.9369C2.4165 11.7904 2.4165 11.5547 2.4165 11.0833V10.0417Z" fill="#223F80"/>
<path fill-rule="evenodd" clip-rule="evenodd" d="M2.4165 22.5833C2.4165 24.469 2.4165 25.4118 3.00229 25.9975C3.58808 26.5833 4.53089 26.5833 6.4165 26.5833H22.5832C24.4688 26.5833 25.4116 26.5833 25.9974 25.9975C26.5832 25.4118 26.5832 24.469 26.5832 22.5833V22.5833V15.5V15.5C26.5832 15.0286 26.5832 14.7929 26.4367 14.6464C26.2903 14.5 26.0546 14.5 25.5832 14.5H3.4165C2.9451 14.5 2.7094 14.5 2.56295 14.6464C2.4165 14.7929 2.4165 15.0286 2.4165 15.5V22.5833ZM8.45817 17.9167C8.45817 17.4453 8.45817 17.2096 8.60462 17.0631C8.75106 16.9167 8.98677 16.9167 9.45817 16.9167H12.2915C12.7629 16.9167 12.9986 16.9167 13.1451 17.0631C13.2915 17.2096 13.2915 17.4453 13.2915 17.9167V18.3333C13.2915 18.8047 13.2915 19.0404 13.1451 19.1869C12.9986 19.3333 12.7629 19.3333 12.2915 19.3333H9.45817C8.98677 19.3333 8.75106 19.3333 8.60462 19.1869C8.45817 19.0404 8.45817 18.8047 8.45817 18.3333V17.9167ZM8.60462 21.8964C8.45817 22.0429 8.45817 22.2786 8.45817 22.75V23.1667C8.45817 23.6381 8.45817 23.8738 8.60462 24.0202C8.75106 24.1667 8.98677 24.1667 9.45817 24.1667H12.2915C12.7629 24.1667 12.9986 24.1667 13.1451 24.0202C13.2915 23.8738 13.2915 23.6381 13.2915 23.1667V22.75C13.2915 22.2786 13.2915 22.0429 13.1451 21.8964C12.9986 21.75 12.7629 21.75 12.2915 21.75H9.45817C8.98677 21.75 8.75106 21.75 8.60462 21.8964ZM15.7082 17.9167C15.7082 17.4453 15.7082 17.2096 15.8546 17.0631C16.0011 16.9167 16.2368 16.9167 16.7082 16.9167H19.5415C20.0129 16.9167 20.2486 16.9167 20.3951 17.0631C20.5415 17.2096 20.5415 17.4453 20.5415 17.9167V18.3333C20.5415 18.8047 20.5415 19.0404 20.3951 19.1869C20.2486 19.3333 20.0129 19.3333 19.5415 19.3333H16.7082C16.2368 19.3333 16.0011 19.3333 15.8546 19.1869C15.7082 19.0404 15.7082 18.8047 15.7082 18.3333V17.9167ZM15.8546 21.8964C15.7082 22.0429 15.7082 22.2786 15.7082 22.75V23.1667C15.7082 23.6381 15.7082 23.8738 15.8546 24.0202C16.0011 24.1667 16.2368 24.1667 16.7082 24.1667H19.5415C20.0129 24.1667 20.2486 24.1667 20.3951 24.0202C20.5415 23.8738 20.5415 23.6381 20.5415 23.1667V22.75C20.5415 22.2786 20.5415 22.0429 20.3951 21.8964C20.2486 21.75 20.0129 21.75 19.5415 21.75H16.7082C16.2368 21.75 16.0011 21.75 15.8546 21.8964Z" fill="#223F80"/>
<path d="M8.4585 3.625L8.4585 7.25" stroke="#223F80" stroke-width="2" stroke-linecap="round"/>
<path d="M20.5415 3.625L20.5415 7.25" stroke="#223F80" stroke-width="2" stroke-linecap="round"/>
</svg>
