<svg width="22" height="22" viewBox="0 0 22 22" fill="none" xmlns="http://www.w3.org/2000/svg">
<path fill-rule="evenodd" clip-rule="evenodd" d="M15.8312 9.83521L17.4164 8.25C17.8061 7.86037 18.0009 7.66555 18.1236 7.46653C18.5206 6.82291 18.5206 6.01043 18.1236 5.36681C18.0009 5.16779 17.8061 4.97297 17.4164 4.58334C17.0268 4.1937 16.832 3.99888 16.633 3.87614C15.9893 3.47919 15.1769 3.47919 14.5332 3.87614C14.3342 3.99888 14.1394 4.1937 13.7498 4.58334L12.1436 6.18949C13.024 7.70489 14.2955 8.96655 15.8312 9.83521ZM10.6891 7.64401L4.52282 13.8103L4.52281 13.8103C4.09775 14.2354 3.88523 14.4479 3.74549 14.709C3.60576 14.9701 3.54681 15.2648 3.42892 15.8543L2.89686 18.5146C2.83034 18.8472 2.79708 19.0135 2.89168 19.1081C2.98629 19.2027 3.1526 19.1694 3.48521 19.1029L6.14552 18.5709C6.73497 18.453 7.0297 18.394 7.2908 18.2543C7.55189 18.1145 7.76442 17.902 8.18948 17.477L14.373 11.2935C12.8882 10.3603 11.6313 9.11191 10.6891 7.64401Z" fill="white"/>
</svg>
