<svg width="15" height="15" viewBox="0 0 15 15" fill="none" xmlns="http://www.w3.org/2000/svg">
<path fill-rule="evenodd" clip-rule="evenodd" d="M12.4587 5.8743L13.8331 4.49994C14.0676 4.26544 14.1849 4.14819 14.2693 4.03598C14.8054 3.32377 14.8054 2.34278 14.2693 1.63057C14.1849 1.51836 14.0676 1.40111 13.8331 1.16661C13.5986 0.932106 13.4814 0.814855 13.3691 0.730405C12.6569 0.194357 11.6759 0.194357 10.9637 0.730405C10.8515 0.814852 10.7343 0.932097 10.4998 1.16658L10.4998 1.16661L9.10616 2.56023C9.90306 3.94047 11.0598 5.08825 12.4587 5.8743ZM7.65156 4.01482L2.18948 9.4769C1.76442 9.90196 1.55189 10.1145 1.41216 10.3756C1.27242 10.6367 1.21348 10.9314 1.09559 11.5209L0.64686 13.7645C0.580338 14.0971 0.547077 14.2634 0.641685 14.358C0.736293 14.4526 0.902598 14.4194 1.23521 14.3529L3.47886 13.9041C4.06831 13.7862 4.36303 13.7273 4.62413 13.5876C4.88523 13.4478 5.09776 13.2353 5.52282 12.8102L11.0004 7.33267C9.65255 6.48191 8.51038 5.34748 7.65156 4.01482Z" fill="#223F80"/>
</svg>
